<?xml version="1.0" standalone="no"?>
<!DOCTYPE svg PUBLIC "-//W3C//DTD SVG 20010904//EN"
 "http://www.w3.org/TR/2001/REC-SVG-20010904/DTD/svg10.dtd">
<svg version="1.0" xmlns="http://www.w3.org/2000/svg"
 width="241.000000pt" height="241.000000pt" viewBox="0 0 241.000000 241.000000"
 preserveAspectRatio="xMidYMid meet">
<metadata>
Created by potrace 1.11, written by Peter Selinger 2001-2013
</metadata>
<g transform="translate(0.000000,241.000000) scale(0.100000,-0.100000)"
fill="#000000" stroke="none">
<path d="M1108 2395 c-224 -61 -375 -238 -383 -444 -2 -70 2 -106 19 -157 6
-20 2 -21 -81 -27 -106 -7 -175 -27 -251 -72 -379 -224 -295 -752 141 -882
171 -50 387 -3 517 114 50 45 51 45 46 17 -13 -68 -20 -89 -61 -172 -76 -154
-219 -323 -384 -454 -57 -45 -69 -58 -52 -59 11 -1 24 -2 29 -4 4 -1 21 -5 37
-9 161 -42 299 -115 374 -198 18 -21 36 -38 40 -38 26 0 99 182 121 297 5 32
12 67 14 78 2 11 7 49 11 85 4 36 9 81 11 100 2 19 5 112 6 205 l1 171 51 -49
c132 -126 251 -189 371 -195 300 -15 551 210 544 487 -3 121 -42 218 -123 308
-74 82 -202 155 -293 168 -21 3 -50 8 -65 11 l-26 5 23 52 c75 165 39 366 -92
503 -61 65 -120 104 -208 139 -60 24 -86 29 -180 31 -67 1 -129 -3 -157 -11z"/>
</g>
</svg>
